<?xml version="1.0" encoding="UTF-8"?>
<svg width="16px" height="16px" viewBox="0 0 16 16" version="1.1" xmlns="http://www.w3.org/2000/svg" xmlns:xlink="http://www.w3.org/1999/xlink">
    <!-- Generator: Sketch 46.2 (44496) - http://www.bohemiancoding.com/sketch -->
    <title>Group 9</title>
    <desc>Created with Sketch.</desc>
    <defs>
        <linearGradient x1="50%" y1="0%" x2="50%" y2="100%" id="linearGradient-1">
            <stop stop-color="#FF9400" offset="0%"></stop>
            <stop stop-color="#FF9400" offset="29.2829241%"></stop>
            <stop stop-color="#FFC980" offset="59.7955198%"></stop>
            <stop stop-color="#FFC980" offset="100%"></stop>
        </linearGradient>
    </defs>
    <g id="Page-1" stroke="none" stroke-width="1" fill="none" fill-rule="evenodd">
        <g id="Group-9">
            <polygon id="Polygon-2" fill="url(#linearGradient-1)" transform="translate(7.000000, 6.425000) scale(1, -1) translate(-7.000000, -6.425000) " points="8.98333333 2.84217094e-14 12.95 5.43653846 10.9666667 12.85 7 7.90769231 2.5375 12.3557692 1.05 5.43653846 4.8710598 2.84217094e-14 5.86272647 0.988461538 7 1.97692308"></polygon>
            <path d="M6.975,10.9 L8.95,12.8831522 L7.9625,14.8663043 C7.27364181,15.1887681 6.84813368,15.35 6.68597561,15.35 C6.52381754,15.35 6.29099234,15.1887681 5.9875,14.8663043 L5,12.8831522 L6.975,10.9 Z" id="Polygon-3" fill="#000000"></path>
            <polygon id="Rectangle-3" fill="#FF9F1B" points="0.7 6.7 13 6.7 12.0352941 9.3 1.71294118 9.3"></polygon>
            <rect id="Rectangle-3" fill="#FFB24A" x="0.7" y="4.75" width="12.3" height="2.6"></rect>
            <polygon id="Triangle-3" fill="#FFC980" points="2.60447154 0.6 7.2 5.55 1.25 5.55"></polygon>
            <polygon id="Triangle-3" fill="#FFC980" transform="translate(9.475000, 2.975000) scale(-1, 1) translate(-9.475000, -2.975000) " points="8.17463235 0.4 12.75 5.55 6.2 5.55"></polygon>
            <path d="M13.6969408,7.02004454 L11.4771554,0.712694878 C11.3339434,0.285077951 10.922209,0 10.4567702,0 L10.4567702,0 C10.1345433,0 9.83021784,0.142538976 9.6333014,0.374164811 L6.67955471,3.88418708 L3.61839906,0.374164811 C3.42148262,0.142538976 3.1171572,0 2.81283179,0 L2.7770288,0 C2.29368843,0 1.86405255,0.320712695 1.73874208,0.783964365 L0.0381000553,7.09131403 C-0.0514074199,7.41202673 0.0201985602,7.73273942 0.217115006,8 L5.82028295,15.5723831 C6.0171994,15.8396437 6.33942631,16 6.66165322,16 C6.66165322,16 6.67955471,16 6.67955471,16 C7.00178163,16 7.32400854,15.857461 7.52092498,15.5902004 L13.5179258,8.01781737 C13.7506453,7.75055679 13.8043497,7.35857461 13.6969408,7.02004454 Z M6.67955471,14.9487751 L5.15792764,12.8997773 C5.44435156,12.3296214 6.03510089,11.9554566 6.69745621,11.9554566 C7.37771302,11.9554566 7.98636385,12.3652561 8.25488628,12.9532294 L6.67955471,14.9487751 Z M8.97094608,12.0623608 C8.45180272,11.3496659 7.61043246,10.8864143 6.69745621,10.8864143 C6.05300239,10.8864143 5.42645006,11.1002227 4.9431097,11.5100223 C4.76409475,11.6525612 4.62088279,11.8129176 4.49557232,11.9732739 L1.07638677,7.37639198 L2.7770288,1.06904232 L2.81283179,1.06904232 L6.67955471,5.5233853 L6.69745621,5.5233853 L10.4567702,1.06904232 L10.4567702,1.06904232 L12.6765556,7.37639198 L8.97094608,12.0623608 Z" id="Shape" fill="#000000" fill-rule="nonzero"></path>
            <path d="M3.425,6.975 C3.7258287,6.64166667 4.0400745,6.475 4.3677374,6.475 C4.6954003,6.475 5.03200864,6.64166667 5.37756242,6.975" id="Line-2" stroke="#000000" stroke-linecap="round" transform="translate(4.401281, 6.725000) scale(-1, 1) translate(-4.401281, -6.725000) "></path>
            <path d="M8.175,6.975 C8.4758287,6.64166667 8.7900745,6.475 9.1177374,6.475 C9.4454003,6.475 9.78200864,6.64166667 10.1275624,6.975" id="Line-2" stroke="#000000" stroke-linecap="round" transform="translate(9.151281, 6.725000) scale(-1, 1) translate(-9.151281, -6.725000) "></path>
            <path d="M5.1,12.3436738 C5.10851052,12.2585737 5.13425253,12.1761679 5.1756165,12.101609 C5.23894532,11.9888665 5.36712984,11.8537229 5.61819117,11.8500385 C5.78418394,11.8476068 5.79901641,11.9610862 5.79996161,11.9959406 C5.80272452,12.1315263 5.65556317,12.2963662 5.61033869,12.3436738 C5.5651142,12.3909815 5.40639225,12.5462419 5.26773776,12.55 L5.26344798,12.55 C5.22164078,12.55 5.10588936,12.5331992 5.1,12.3498636 L5.1,12.3467687 L5.1,12.3436738 Z" id="Path" fill="#FFFFFF"></path>
        </g>
    </g>
</svg>