<?xml version="1.0" encoding="UTF-8"?>
<svg width="52px" height="27px" viewBox="0 0 52 27" version="1.1" xmlns="http://www.w3.org/2000/svg" xmlns:xlink="http://www.w3.org/1999/xlink">
    <!-- Generator: Sketch 46.2 (44496) - http://www.bohemiancoding.com/sketch -->
    <title>Shape</title>
    <desc>Created with Sketch.</desc>
    <defs></defs>
    <g id="Page-1" stroke="none" stroke-width="1" fill="none" fill-rule="evenodd">
        <g id="noun_754935_cc" fill-rule="nonzero" fill="#C6C6C6">
            <path d="M44.8157895,13.1368421 C43.9263158,13.1368421 43.0368421,13.3421053 42.2842105,13.6157895 C40.9157895,10.0578947 37.4947368,7.52631579 33.4578947,7.52631579 C31.4736842,7.52631579 29.6263158,8.14210526 28.0526316,9.23684211 C28.0526316,9.16842105 28.0526316,9.03157895 28.0526316,8.96315789 C28.0526316,4.31052632 24.2894737,0.547368421 19.6368421,0.547368421 C14.9842105,0.547368421 11.2210526,4.31052632 11.2210526,8.96315789 C11.2210526,9.44210526 11.2894737,9.98947368 11.3578947,10.4684211 C10.5368421,10.1947368 9.71578947,10.0578947 8.82631579,10.0578947 C4.17368421,10.0578947 0.410526316,13.8210526 0.410526316,18.4736842 C0.410526316,23.1263158 4.17368421,26.8894737 8.82631579,26.8894737 C8.89473684,26.8894737 9.03157895,26.8894737 9.1,26.8894737 L44.7473684,26.8894737 C48.5105263,26.8894737 51.5894737,23.8105263 51.5894737,20.0473684 C51.5894737,16.2842105 48.5789474,13.1368421 44.8157895,13.1368421 Z M19.0894737,4.17368421 C18.9526316,4.17368421 15.6,4.78947368 15.1894737,8.68947368 C15.1210526,9.03157895 14.8473684,9.30526316 14.5052632,9.30526316 C14.5052632,9.30526316 14.4368421,9.30526316 14.4368421,9.30526316 C14.0947368,9.23684211 13.8210526,8.89473684 13.8210526,8.55263158 C14.3684211,3.55789474 18.8157895,2.80526316 18.8157895,2.80526316 C19.1578947,2.73684211 19.5684211,3.01052632 19.5684211,3.35263158 C19.7052632,3.76315789 19.4315789,4.17368421 19.0894737,4.17368421 Z" id="Shape"></path>
        </g>
    </g>
</svg>