<?xml version="1.0" encoding="UTF-8"?>
<svg width="16px" height="16px" viewBox="0 0 16 16" version="1.1" xmlns="http://www.w3.org/2000/svg" xmlns:xlink="http://www.w3.org/1999/xlink">
    <!-- Generator: Sketch 46.2 (44496) - http://www.bohemiancoding.com/sketch -->
    <title>Group 36</title>
    <desc>Created with Sketch.</desc>
    <defs>
        <linearGradient x1="50%" y1="0%" x2="50%" y2="100%" id="linearGradient-1">
            <stop stop-color="#FF9400" offset="0%"></stop>
            <stop stop-color="#FF9400" offset="29.2829241%"></stop>
            <stop stop-color="#FFC980" offset="59.7955198%"></stop>
            <stop stop-color="#FFC980" offset="100%"></stop>
        </linearGradient>
    </defs>
    <g id="Page-1" stroke="none" stroke-width="1" fill="none" fill-rule="evenodd">
        <g id="Group-36">
            <g id="help-16(1)" transform="translate(12.000000, 0.000000)" fill-rule="nonzero" fill="#000000">
                <path d="M1.86760253,0.0514103416 C1.37654104,0.0184023511 0.895157373,0.199124455 0.547140914,0.547140914 C0.199124455,0.895157373 0.0184023511,1.37654104 0.0514103416,1.86760253 C0.0514103416,2.17288021 0.298886801,2.42035667 0.604164485,2.42035667 C0.909442169,2.42035667 1.15691863,2.17288021 1.15691863,1.86760253 C1.15691863,1.23588351 1.53595004,1.15691863 1.86760253,1.15691863 C2.18485871,1.13258113 2.47842603,1.32586794 2.58144502,1.62691758 C2.63965423,1.89366437 2.49870716,2.16385724 2.24663394,2.2687441 C1.6868292,2.55956507 1.32975361,3.13209644 1.31484838,3.76275959 L1.31484838,3.9756489 C1.31484838,4.28092658 1.56232484,4.52840304 1.86760253,4.52840304 C2.17288021,4.52840304 2.42035667,4.28092658 2.42035667,3.9756489 L2.42035667,3.74191286 C2.44841627,3.51293201 2.59440916,3.31539812 2.80507355,3.22137639 C3.48869926,2.86434188 3.83786348,2.08473343 3.64905017,1.33695855 C3.41807,0.55219822 2.68516666,0.0233123009 1.86760253,0.0514103416 Z M1.86760253,4.86826788 C1.43149155,4.86826788 1.07795375,5.22180568 1.07795375,5.65791665 C1.07795375,6.09402763 1.43149155,6.44756543 1.86760253,6.44756543 C2.3037135,6.44756543 2.6572513,6.09402763 2.6572513,5.65791665 C2.6572513,5.22180568 2.3037135,4.86826788 1.86760253,4.86826788 L1.86760253,4.86826788 Z" id="Shape"></path>
            </g>
            <g id="Foxy-SF" transform="translate(0.000000, 2.000000)">
                <polygon id="Polygon-2" fill="url(#linearGradient-1)" fill-rule="nonzero" transform="translate(6.000000, 5.507143) scale(-1, 1) rotate(-180.000000) translate(-6.000000, -5.507143) " points="7.7 0 11.1 4.65989011 9.40000003 11.0142857 6 6.77802198 2.175 10.5906593 0.9 4.65989011 4.17519411 0 5.02519412 0.847252747 6 1.6945055"></polygon>
                <path d="M5.97857143,9.34285714 L7.67142857,11.0427019 L6.825,12.7425465 C6.23455012,13.0189441 5.86982887,13.1571429 5.73083624,13.1571429 C5.59184361,13.1571429 5.39227915,13.0189441 5.13214286,12.7425465 L4.28571429,11.0427019 L5.97857143,9.34285714 Z" id="Polygon-3" fill="#000000" fill-rule="nonzero"></path>
                <polygon id="Rectangle-3" fill="#FF9F1B" fill-rule="nonzero" points="0.6 5.74285714 11.1428571 5.74285714 10.3159664 7.97142857 1.4682353 7.97142857"></polygon>
                <rect id="Rectangle-3" fill="#FFB24A" fill-rule="nonzero" x="0.6" y="4.07142857" width="10.5428571" height="2.22857143"></rect>
                <polygon id="Triangle-3" fill="#FFC980" fill-rule="nonzero" points="2.23240418 0.514285714 6.17142857 4.75714286 1.07142857 4.75714286"></polygon>
                <polygon id="Triangle-3" fill="#FFC980" fill-rule="nonzero" transform="translate(8.121429, 2.550000) scale(-1, 1) translate(-8.121429, -2.550000) " points="7.00682773 0.342857143 10.9285714 4.75714286 5.31428571 4.75714286"></polygon>
                <path d="M11.740235,6.01718103 L9.83756177,0.610881324 C9.71480863,0.244352529 9.36189343,0 8.96294589,0 L8.96294589,0 C8.6867514,0 8.42590101,0.122176265 8.25711549,0.320712695 L5.72533261,3.32930321 L3.10148491,0.320712695 C2.93269939,0.122176265 2.67184903,0 2.41099868,0 L2.3803104,0 C1.96601865,0 1.59775933,0.274896596 1.49035035,0.671969456 L0.0326571903,6.07826917 C-0.0440635028,6.35316577 0.0173130516,6.62806236 0.186098577,6.85714286 L4.98881396,13.3477569 C5.15759949,13.5768375 5.43379398,13.7142857 5.70998847,13.7142857 C5.70998847,13.7142857 5.72533261,13.7142857 5.72533261,13.7142857 C6.00152711,13.7142857 6.27772161,13.5921094 6.44650713,13.3630289 L11.5867935,6.87241489 C11.7862674,6.64333439 11.8322997,6.30734967 11.740235,6.01718103 Z M5.72533261,12.8132358 L4.42108083,11.056952 C4.66658705,10.5682469 5.17294362,10.2475342 5.74067675,10.2475342 C6.32375402,10.2475342 6.84545473,10.5987909 7.07561681,11.1027681 L5.72533261,12.8132358 Z M7.68938235,10.3391664 C7.24440233,9.72828506 6.52322782,9.33121226 5.74067675,9.33121226 C5.18828776,9.33121226 4.65124291,9.5144766 4.23695117,9.8657334 C4.08350979,9.9879096 3.96075668,10.1253579 3.8533477,10.2628062 L0.922617231,6.3226217 L2.3803104,0.916321989 L2.41099868,0.916321989 L5.72533261,4.73433026 L5.74067675,4.73433026 L8.96294589,0.916321989 L8.96294589,0.916321989 L10.8656191,6.3226217 L7.68938235,10.3391664 Z" id="Shape" fill="#000000" fill-rule="nonzero"></path>
                <path d="M2.93571393,5.97857143 C3.1935671,5.69285715 3.46292064,5.55 3.74377455,5.55 C4.02462847,5.55 4.3131499,5.69285715 4.60933886,5.97857143" id="Line-2" stroke="#000000" stroke-linecap="round" transform="translate(3.772526, 5.978571) scale(-1, 1) translate(-3.772526, -5.978571) "></path>
                <path d="M7.00714251,5.97857143 C7.26499569,5.69285715 7.53434923,5.55 7.81520314,5.55 C8.09605706,5.55 8.38457849,5.69285715 8.68076743,5.97857143" id="Line-2" stroke="#000000" stroke-linecap="round" transform="translate(7.843955, 5.978571) scale(-1, 1) translate(-7.843955, -5.978571) "></path>
                <path d="M4.37142857,10.5802918 C4.3787233,10.5073489 4.40078788,10.4367153 4.43624271,10.3728077 C4.49052456,10.2761713 4.60039701,10.1603339 4.81559243,10.1571759 C4.95787195,10.1550915 4.97058549,10.2523596 4.97139567,10.2822348 C4.97376387,10.3984511 4.84762557,10.5397425 4.80886173,10.5802918 C4.77009789,10.6208413 4.6340505,10.7539216 4.51520379,10.7571429 L4.51152684,10.7571429 C4.4756921,10.7571429 4.37647659,10.7427422 4.37142857,10.5855974 L4.37142857,10.5829446 L4.37142857,10.5802918 Z" id="Path" fill="#FFFFFF" fill-rule="nonzero"></path>
            </g>
        </g>
    </g>
</svg>