<?xml version="1.0" encoding="UTF-8"?>
<svg width="34px" height="34px" viewBox="0 0 34 34" version="1.1" xmlns="http://www.w3.org/2000/svg" xmlns:xlink="http://www.w3.org/1999/xlink">
    <!-- Generator: Sketch 47.1 (45422) - http://www.bohemiancoding.com/sketch -->
    <title>Active state</title>
    <desc>Created with Sketch.</desc>
    <defs></defs>
    <g id="Page-1" stroke="none" stroke-width="1" fill="none" fill-rule="evenodd">
        <g id="Foxy-sidebar-v1" transform="translate(-1237.000000, -336.000000)">
            <g id="Disabled" transform="translate(1133.000000, 285.000000)">
                <g id="Sidebar-/-Template"></g>
                <g id="Active-state" transform="translate(22.000000, 51.000000)">
                    <g id="Icon---mic" transform="translate(83.000000, 1.000000)">
                        <circle id="Oval" stroke="#D7D7DB" cx="16" cy="16" r="16"></circle>
                        <g id="microphone-16-disabled" transform="translate(4.000000, 4.000000)" fill-rule="nonzero" fill="#D7D7DB">
                            <path d="M17.149144,11.9894553 L17.149144,13.7022346 C17.149144,16.5400603 14.8485967,18.8405726 12.0107278,18.8405726 C11.5110681,18.8330698 11.0152674,18.7516882 10.5394279,18.5990707 L9.21200369,19.9264747 C9.56260289,20.084523 9.92585121,20.2128612 10.2979223,20.3101372 L10.2979223,22.2661312 L7.72871419,22.2661312 C7.25573603,22.2661312 6.87231148,22.6495499 6.87231148,23.1225209 C6.87231148,23.5954918 7.25573603,23.9789106 7.72871419,23.9789106 L16.2927413,23.9789106 C16.7657195,23.9789106 17.149144,23.5954918 17.149144,23.1225209 C17.149144,22.6495499 16.7657195,22.2661312 16.2927413,22.2661312 L13.7235332,22.2661312 L13.7235332,20.3101372 C16.7392443,19.5315192 18.850277,16.8167724 18.8619495,13.7022346 L18.8619495,11.1330656 C18.8623554,10.9057817 18.7723936,10.6876586 18.6118799,10.5267417 L17.149144,11.9894553 Z M23.4985138,0.501844342 C22.8296635,-0.166793771 21.7454572,-0.166793771 21.0766069,0.501844342 L15.4363386,6.14202666 L15.4363386,3.42555865 C15.4363386,1.53367485 13.9026404,0 12.0107278,0 C10.1188151,-1.90156704e-16 8.58511691,1.53367485 8.58511691,3.42555865 L8.58511691,12.993144 L6.96651578,14.6117204 C6.90678727,14.3121646 6.87524809,14.0076728 6.87231148,13.7022346 L6.87231148,11.1330656 C6.87231148,10.6600947 6.48888692,10.276676 6.01590876,10.276676 C5.5429306,10.276676 5.15950605,10.6600947 5.15950605,11.1330656 L5.15950605,13.7022346 C5.16364501,14.4853199 5.30749157,15.2613835 5.58428179,15.9939333 L0.522941752,21.0551963 C0.0776867034,21.4852314 -0.100883561,22.1220486 0.0558645823,22.7208867 C0.212612726,23.3197248 0.680285616,23.7873905 1.2791328,23.9441363 C1.87797999,24.100882 2.51480691,23.9223145 2.94484863,23.4770662 L23.4985138,2.92371431 C24.1671621,2.25487424 24.1671621,1.17068441 23.4985138,0.501844342 Z" id="Shape"></path>
                        </g>
                    </g>
                </g>
            </g>
        </g>
    </g>
</svg>