<?xml version="1.0" encoding="UTF-8"?>
<svg width="14px" height="16px" viewBox="0 0 14 16" version="1.1" xmlns="http://www.w3.org/2000/svg" xmlns:xlink="http://www.w3.org/1999/xlink">
    <!-- Generator: Sketch 46.2 (44496) - http://www.bohemiancoding.com/sketch -->
    <title>noun_1206042_cc</title>
    <desc>Created with Sketch.</desc>
    <defs>
        <linearGradient x1="50%" y1="0%" x2="50%" y2="100%" id="linearGradient-1">
            <stop stop-color="#FF00DB" offset="0%"></stop>
            <stop stop-color="#B51E9E" offset="100%"></stop>
        </linearGradient>
    </defs>
    <g id="Page-1" stroke="none" stroke-width="1" fill="none" fill-rule="evenodd">
        <g id="noun_1206042_cc">
            <g id="Group" transform="translate(0.000000, 0.113390)">
                <ellipse id="Oval-8" fill="#FFEB00" cx="7" cy="9" rx="6" ry="5"></ellipse>
                <path d="M6.72223093,0.0643786667 C6.35840871,0.0643786667 6.02624871,0.118814222 5.75554649,0.219934222 C5.62020427,0.270512 5.49727093,0.329872 5.3888976,0.425498667 C5.28052427,0.521125333 5.17776871,0.674263111 5.17776871,0.864378667 C5.17776871,1.054512 5.28052427,1.21321422 5.3888976,1.30882311 C5.49727093,1.40444978 5.62020427,1.46382756 5.75554649,1.51438756 C5.8936976,1.56597867 6.04543093,1.60553422 6.21111982,1.63104533 L5.90555538,2.26437867 C2.58173351,2.683632 0.00555573333,5.52949867 0.00555573333,8.96439111 C0.00555573333,12.6873956 3.03088907,15.7088356 6.75554649,15.7088356 C10.4785509,15.7088356 13.5055554,12.6873956 13.5055554,8.96439111 C13.5055554,5.52903644 10.928702,2.68302756 7.60555538,2.26437867 L7.30000871,1.63104533 C7.46525316,1.60553422 7.61771538,1.565872 7.75554649,1.51438756 C7.89090649,1.46382756 8.01383982,1.40444978 8.12223093,1.30882311 C8.23058649,1.21319644 8.33888871,1.05449422 8.33888871,0.864378667 C8.33888871,0.674263111 8.23058649,0.521125333 8.12223093,0.425498667 C8.01383982,0.329872 7.89090649,0.270512 7.75554649,0.219934222 C7.48486204,0.118814222 7.15826649,0.0643786667 6.79444427,0.0643786667 L6.75554649,0.0643786667 L6.72223093,0.0643786667 Z M6.75554649,4.08660089 C6.9519142,4.08660138 7.11110155,4.24578874 7.11110204,4.44215644 L7.11110204,8.60883556 L11.2777865,8.60883556 C11.4741542,8.60883605 11.6333416,8.7680234 11.633342,8.96439111 C11.633342,11.6531733 9.44251538,13.8366044 6.75554649,13.8366044 C4.06695982,13.8366044 1.88333351,11.6531733 1.88333351,8.96439111 C1.88333351,6.27561422 4.06678204,4.08660089 6.75554649,4.08660089 L6.75554649,4.08660089 Z" id="Shape" fill="url(#linearGradient-1)"></path>
                <path d="M6.40155538,4.81266311 L6.40155538,8.96256 C6.40155587,9.15892771 6.56074323,9.31811506 6.75711093,9.31811556 L10.9052176,9.31811556 C10.7254487,11.4552356 8.94013316,13.1258844 6.75711093,13.1258844 C4.45243538,13.1258844 2.59199129,11.2670578 2.59199129,8.96256 C2.59199129,6.77785422 4.2642576,4.992432 6.40155538,4.81266311 L6.40155538,4.81266311 Z" id="Shape" fill="url(#linearGradient-1)"></path>
            </g>
        </g>
    </g>
</svg>