<?xml version="1.0" encoding="UTF-8"?>
<svg width="16px" height="14px" viewBox="0 0 16 14" version="1.1" xmlns="http://www.w3.org/2000/svg" xmlns:xlink="http://www.w3.org/1999/xlink">
    <!-- Generator: Sketch 46.2 (44496) - http://www.bohemiancoding.com/sketch -->
    <title>noun_1024312_cc</title>
    <desc>Created with Sketch.</desc>
    <defs>
        <linearGradient x1="50%" y1="0%" x2="50%" y2="97.3353795%" id="linearGradient-1">
            <stop stop-color="#0996F8" offset="0%"></stop>
            <stop stop-color="#0A75D3" offset="100%"></stop>
        </linearGradient>
    </defs>
    <g id="Page-1" stroke="none" stroke-width="1" fill="none" fill-rule="evenodd">
        <g id="noun_1024312_cc">
            <path d="M7.89333333,0.0355555556 L0.177777778,5.22666667 L0.888888889,6.22222222 L2.48888889,5.19111111 L2.48888889,13.5111111 L13.8666667,13.5111111 L13.8666667,5.22666667 L15.2533333,6.22222222 L15.8222222,5.22666667 L7.89333333,0.0355555556 Z M8.10666667,11.4488889 C7.92888889,11.4488889 7.78666667,11.3777778 7.64444444,11.2711111 C7.50222222,11.1644444 7.43111111,10.9866667 7.43111111,10.7733333 C7.43111111,10.3466667 7.75111111,10.1333333 8.07111111,10.1333333 C8.39111111,10.1333333 8.71111111,10.3466667 8.71111111,10.7733333 C8.78222222,11.2 8.42666667,11.4488889 8.10666667,11.4488889 Z M10.3111111,9.17333333 C10.1333333,9.35111111 9.84888889,9.35111111 9.70666667,9.20888889 C9.28,8.78222222 8.71111111,8.56888889 8.10666667,8.56888889 C8.10666667,8.56888889 8.10666667,8.56888889 8.10666667,8.56888889 C7.50222222,8.56888889 6.93333333,8.81777778 6.50666667,9.24444444 C6.43555556,9.31555556 6.29333333,9.38666667 6.18666667,9.38666667 C6.08,9.38666667 5.97333333,9.35111111 5.86666667,9.24444444 C5.68888889,9.06666667 5.68888889,8.67555556 5.86666667,8.49777778 C6.47111111,7.89333333 7.21777778,7.46666667 8.07111111,7.46666667 C8.07111111,7.46666667 8.07111111,7.46666667 8.07111111,7.46666667 C8.88888889,7.46666667 9.67111111,7.89333333 10.2755556,8.46222222 C10.4888889,8.64 10.4888889,8.99555556 10.3111111,9.17333333 Z M12.2311111,7.28888889 C12.0533333,7.46666667 11.7688889,7.43111111 11.6266667,7.28888889 L11.6266667,7.28888889 C10.7022222,6.36444444 9.45777778,5.83111111 8.14222222,5.83111111 C6.82666667,5.83111111 5.58222222,6.32888889 4.65777778,7.28888889 C4.58666667,7.36 4.44444444,7.43111111 4.33777778,7.43111111 C4.23111111,7.43111111 4.12444444,7.39555556 4.01777778,7.28888889 C3.84,7.11111111 3.84,6.86222222 4.01777778,6.68444444 C5.12,5.58222222 6.57777778,4.97777778 8.10666667,4.97777778 C9.63555556,4.97777778 11.0933333,5.58222222 12.1955556,6.68444444 C12.3733333,6.86222222 12.3733333,7.11111111 12.2311111,7.28888889 Z" id="Shape" fill="url(#linearGradient-1)" fill-rule="nonzero"></path>
            <path d="M8.10666667,11.4488889 C7.92888889,11.4488889 7.78666667,11.3777778 7.64444444,11.2711111 C7.50222222,11.1644444 7.43111111,10.9866667 7.43111111,10.7733333 C7.43111111,10.3466667 7.75111111,10.1333333 8.07111111,10.1333333 C8.39111111,10.1333333 8.71111111,10.3466667 8.71111111,10.7733333 C8.78222222,11.2 8.42666667,11.4488889 8.10666667,11.4488889 Z" id="Path" fill="#FFEB00"></path>
            <path d="M10.3111111,9.17333333 C10.1333333,9.35111111 9.84888889,9.35111111 9.70666667,9.20888889 C9.28,8.78222222 8.71111111,8.56888889 8.10666667,8.56888889 C8.10666667,8.56888889 8.10666667,8.56888889 8.10666667,8.56888889 C7.50222222,8.56888889 6.93333333,8.81777778 6.50666667,9.24444444 C6.43555556,9.31555556 6.29333333,9.38666667 6.18666667,9.38666667 C6.08,9.38666667 5.97333333,9.35111111 5.86666667,9.24444444 C5.68888889,9.06666667 5.68888889,8.67555556 5.86666667,8.49777778 C6.47111111,7.89333333 7.21777778,7.46666667 8.07111111,7.46666667 C8.07111111,7.46666667 8.07111111,7.46666667 8.07111111,7.46666667 C8.88888889,7.46666667 9.67111111,7.89333333 10.2755556,8.46222222 C10.4888889,8.64 10.4888889,8.99555556 10.3111111,9.17333333 Z" id="Path" fill="#FFEB00"></path>
            <path d="M12.2311111,7.28888889 C12.0533333,7.46666667 11.7688889,7.43111111 11.6266667,7.28888889 L11.6266667,7.28888889 C10.7022222,6.36444444 9.45777778,5.83111111 8.14222222,5.83111111 C6.82666667,5.83111111 5.58222222,6.32888889 4.65777778,7.28888889 C4.58666667,7.36 4.44444444,7.43111111 4.33777778,7.43111111 C4.23111111,7.43111111 4.12444444,7.39555556 4.01777778,7.28888889 C3.84,7.11111111 3.84,6.86222222 4.01777778,6.68444444 C5.12,5.58222222 6.57777778,4.97777778 8.10666667,4.97777778 C9.63555556,4.97777778 11.0933333,5.58222222 12.1955556,6.68444444 C12.3733333,6.86222222 12.3733333,7.11111111 12.2311111,7.28888889 Z" id="Path" fill="#FFEB00"></path>
        </g>
    </g>
</svg>