<?xml version="1.0" encoding="UTF-8"?>
<svg width="52px" height="34px" viewBox="0 0 52 34" version="1.1" xmlns="http://www.w3.org/2000/svg" xmlns:xlink="http://www.w3.org/1999/xlink">
    <!-- Generator: Sketch 46.2 (44496) - http://www.bohemiancoding.com/sketch -->
    <title>noun_754950_cc</title>
    <desc>Created with Sketch.</desc>
    <defs></defs>
    <g id="Page-1" stroke="none" stroke-width="1" fill="none" fill-rule="evenodd">
        <g id="noun_754950_cc" fill-rule="nonzero">
            <path d="M16.9,5.49545455 C16.4272727,5.49545455 16.0136364,5.08181818 16.0136364,4.60909091 L16.0136364,1.24090909 C16.0136364,0.768181818 16.4272727,0.354545455 16.9,0.354545455 C17.3727273,0.354545455 17.7863636,0.768181818 17.7863636,1.24090909 L17.7863636,4.60909091 C17.7863636,5.14090909 17.4318182,5.49545455 16.9,5.49545455 Z" id="Shape" fill="#FF910A"></path>
            <path d="M8.68636364,8.50909091 C8.45,8.50909091 8.15454545,8.39090909 8.03636364,8.21363636 L5.85,5.61363636 C5.55454545,5.25909091 5.61363636,4.66818182 5.96818182,4.37272727 C6.32272727,4.07727273 6.91363636,4.07727273 7.20909091,4.49090909 L9.39545455,7.09090909 C9.69090909,7.44545455 9.63181818,8.03636364 9.27727273,8.33181818 C9.1,8.45 8.92272727,8.50909091 8.68636364,8.50909091 Z" id="Shape" fill="#FF910A"></path>
            <path d="M4.31363636,16.1318182 C4.25454545,16.1318182 4.19545455,16.1318182 4.13636364,16.1318182 L0.827272727,15.5409091 C0.354545455,15.4818182 -5.56360513e-14,15.0090909 0.118181818,14.5363636 C0.177272727,14.0636364 0.65,13.7090909 1.12272727,13.8272727 L4.43181818,14.4181818 C4.90454545,14.4772727 5.25909091,14.95 5.14090909,15.4227273 C5.14090909,15.7772727 4.72727273,16.1318182 4.31363636,16.1318182 Z" id="Shape" fill="#FF910A"></path>
            <path d="M2.95454545,26.4136364 C2.65909091,26.4136364 2.36363636,26.2363636 2.18636364,25.9409091 C1.95,25.5272727 2.06818182,24.9954545 2.48181818,24.7590909 L5.37727273,23.1045455 C5.79090909,22.8681818 6.32272727,22.9863636 6.55909091,23.4 C6.79545455,23.8136364 6.67727273,24.3454545 6.26363636,24.5818182 L3.36818182,26.2363636 C3.25,26.3545455 3.07272727,26.4136364 2.95454545,26.4136364 Z" id="Shape" fill="#FF910A"></path>
            <path d="M25.1727273,8.50909091 C24.9954545,8.50909091 24.7590909,8.45 24.5818182,8.27272727 C24.2272727,7.97727273 24.1681818,7.38636364 24.4636364,7.03181818 L26.65,4.43181818 C26.9454545,4.07727273 27.5363636,4.01818182 27.8909091,4.31363636 C28.2454545,4.60909091 28.3045455,5.2 28.0090909,5.55454545 L25.8227273,8.15454545 C25.6454545,8.39090909 25.4090909,8.50909091 25.1727273,8.50909091 Z" id="Shape" fill="#FF910A"></path>
            <path d="M46.4454545,22.75 C45.7363636,22.75 44.9681818,22.9272727 44.3772727,23.1636364 C43.2545455,20.2681818 40.4772727,18.2 37.1681818,18.2 C35.5727273,18.2 34.0363636,18.7318182 32.7363636,19.6181818 C32.7363636,19.5590909 32.7363636,19.4409091 32.7363636,19.3818182 C32.7363636,15.6 29.6636364,12.5272727 25.8818182,12.5272727 C22.1,12.5272727 19.0272727,15.6 19.0272727,19.3818182 C19.0272727,19.7954545 19.0863636,20.2090909 19.1454545,20.6227273 C18.4954545,20.3863636 17.7863636,20.2681818 17.0772727,20.2681818 C13.2954545,20.2681818 10.2227273,23.3409091 10.2227273,27.1227273 C10.2227273,30.9045455 13.2954545,33.9772727 17.0772727,33.9772727 C17.1363636,33.9772727 17.2545455,33.9772727 17.3136364,33.9772727 L46.3863636,33.9772727 C49.4590909,33.9772727 51.9409091,31.4363636 51.9409091,28.4227273 C51.9409091,25.2909091 49.5181818,22.75 46.4454545,22.75 Z" id="Shape" fill="#C6C6C6"></path>
            <path d="M17.0772727,19.3227273 C17.4318182,19.3227273 17.7863636,19.3227273 18.1409091,19.3818182 C18.1409091,19.3818182 18.1409091,19.3227273 18.1409091,19.3227273 C18.1409091,15.6 20.7409091,12.5272727 24.2272727,11.7590909 C22.5136364,9.57272727 19.9136364,8.15454545 16.9,8.15454545 C11.7590909,8.15454545 7.62272727,12.2909091 7.62272727,17.4318182 C7.62272727,19.8545455 8.56818182,22.0409091 10.1045455,23.6954545 C11.3454545,21.0954545 14.0045455,19.3227273 17.0772727,19.3227273 Z" id="Shape" fill="#FF910A"></path>
        </g>
    </g>
</svg>