<?xml version="1.0" encoding="UTF-8"?>
<svg width="52px" height="45px" viewBox="0 0 52 45" version="1.1" xmlns="http://www.w3.org/2000/svg" xmlns:xlink="http://www.w3.org/1999/xlink">
    <!-- Generator: Sketch 46.2 (44496) - http://www.bohemiancoding.com/sketch -->
    <title>noun_754938_cc</title>
    <desc>Created with Sketch.</desc>
    <defs></defs>
    <g id="Page-1" stroke="none" stroke-width="1" fill="none" fill-rule="evenodd">
        <g id="noun_754938_cc" fill-rule="nonzero" fill="#0080FF">
            <path d="M44.7473684,12.7947368 C43.8578947,12.7947368 42.9684211,13 42.2157895,13.2736842 C40.8473684,9.71578947 37.4263158,7.18421053 33.3894737,7.18421053 C31.4052632,7.18421053 29.5578947,7.8 27.9842105,8.89473684 C27.9842105,8.82631579 27.9842105,8.68947368 27.9842105,8.62105263 C27.9842105,3.96842105 24.2210526,0.205263158 19.5684211,0.205263158 C14.9157895,0.205263158 11.1526316,3.96842105 11.1526316,8.62105263 C11.1526316,9.1 11.2210526,9.64736842 11.2894737,10.1263158 C10.4684211,9.85263158 9.64736842,9.71578947 8.75789474,9.71578947 C4.10526316,9.71578947 0.342105263,13.4789474 0.342105263,18.1315789 C0.342105263,22.7842105 4.10526316,26.5473684 8.75789474,26.5473684 C8.82631579,26.5473684 8.96315789,26.5473684 9.03157895,26.5473684 L44.6789474,26.5473684 C48.4421053,26.5473684 51.5210526,23.4684211 51.5210526,19.7052632 C51.5210526,15.9421053 48.5105263,12.7947368 44.7473684,12.7947368 Z M19.0210526,3.9 C18.8842105,3.9 15.5315789,4.51578947 15.1210526,8.41578947 C15.0526316,8.75789474 14.7789474,9.03157895 14.4368421,9.03157895 L14.3684211,9.03157895 C14.0263158,8.96315789 13.7526316,8.62105263 13.7526316,8.27894737 C14.3,3.28421053 18.7473684,2.53157895 18.7473684,2.53157895 C19.0894737,2.46315789 19.5,2.73684211 19.5,3.07894737 C19.6368421,3.48947368 19.3631579,3.83157895 19.0210526,3.9 Z" id="Shape"></path>
            <g id="Group" transform="translate(6.842105, 30.105263)">
                <path d="M5.54210526,6.08947368 C5.40526316,6.08947368 5.26842105,6.08947368 5.06315789,5.95263158 C4.58421053,5.67894737 4.31052632,5.06315789 4.58421053,4.58421053 L6.36315789,0.889473684 C6.63684211,0.410526316 7.25263158,0.136842105 7.73157895,0.410526316 C8.21052632,0.684210526 8.48421053,1.3 8.21052632,1.77894737 L6.43157895,5.47368421 C6.29473684,5.88421053 5.88421053,6.08947368 5.54210526,6.08947368 Z" id="Shape"></path>
                <path d="M1.50526316,14.3684211 C1.36842105,14.3684211 1.23157895,14.3684211 1.02631579,14.2315789 C0.547368421,13.9578947 0.273684211,13.3421053 0.547368421,12.8631579 L2.39473684,9.23684211 C2.66842105,8.75789474 3.28421053,8.48421053 3.76315789,8.75789474 C4.24210526,9.03157895 4.51578947,9.64736842 4.24210526,10.1263158 L2.39473684,13.8210526 C2.25789474,14.1631579 1.84736842,14.3684211 1.50526316,14.3684211 Z" id="Shape"></path>
            </g>
            <g id="Group" transform="translate(15.736842, 30.105263)">
                <path d="M5.33684211,6.08947368 C5.2,6.08947368 5.06315789,6.08947368 4.85789474,5.95263158 C4.37894737,5.67894737 4.10526316,5.06315789 4.37894737,4.58421053 L6.15789474,0.889473684 C6.43157895,0.410526316 7.04736842,0.136842105 7.52631579,0.410526316 C8.00526316,0.684210526 8.27894737,1.3 8.00526316,1.77894737 L6.22631579,5.47368421 C6.08947368,5.88421053 5.74736842,6.08947368 5.33684211,6.08947368 Z" id="Shape"></path>
                <path d="M1.3,14.3684211 C1.16315789,14.3684211 1.02631579,14.3684211 0.821052632,14.2315789 C0.342105263,13.9578947 0.0684210526,13.3421053 0.342105263,12.8631579 L2.12105263,9.16842105 C2.39473684,8.68947368 3.01052632,8.41578947 3.48947368,8.68947368 C3.96842105,8.96315789 4.24210526,9.57894737 3.96842105,10.0578947 L2.18947368,13.7526316 C2.05263158,14.1631579 1.71052632,14.3684211 1.3,14.3684211 Z" id="Shape"></path>
            </g>
            <g id="Group" transform="translate(24.631579, 30.105263)">
                <path d="M5.2,6.08947368 C5.06315789,6.08947368 4.92631579,6.08947368 4.72105263,5.95263158 C4.24210526,5.67894737 3.96842105,5.06315789 4.24210526,4.58421053 L6.02105263,0.889473684 C6.29473684,0.410526316 6.91052632,0.136842105 7.38947368,0.410526316 C7.86842105,0.684210526 8.14210526,1.3 7.86842105,1.77894737 L6.08947368,5.47368421 C5.95263158,5.88421053 5.54210526,6.08947368 5.2,6.08947368 Z" id="Shape"></path>
                <path d="M1.16315789,14.3684211 C1.02631579,14.3684211 0.889473684,14.3684211 0.684210526,14.2315789 C0.205263158,13.9578947 -0.0684210526,13.3421053 0.205263158,12.8631579 L1.98421053,9.16842105 C2.25789474,8.68947368 2.87368421,8.41578947 3.35263158,8.68947368 C3.83157895,8.96315789 4.10526316,9.57894737 3.83157895,10.0578947 L2.05263158,13.7526316 C1.91578947,14.1631579 1.50526316,14.3684211 1.16315789,14.3684211 Z" id="Shape"></path>
            </g>
            <g id="Group" transform="translate(32.842105, 30.105263)">
                <path d="M5.67894737,6.08947368 C5.54210526,6.08947368 5.40526316,6.08947368 5.2,5.95263158 C4.72105263,5.67894737 4.44736842,5.06315789 4.72105263,4.58421053 L6.5,0.889473684 C6.77368421,0.410526316 7.38947368,0.136842105 7.86842105,0.410526316 C8.34736842,0.684210526 8.62105263,1.3 8.34736842,1.77894737 L6.63684211,5.47368421 C6.43157895,5.88421053 6.08947368,6.08947368 5.67894737,6.08947368 Z" id="Shape"></path>
                <path d="M1.64210526,14.3684211 C1.50526316,14.3684211 1.36842105,14.3684211 1.16315789,14.2315789 C0.684210526,13.9578947 0.410526316,13.3421053 0.684210526,12.8631579 L2.46315789,9.16842105 C2.73684211,8.68947368 3.35263158,8.41578947 3.83157895,8.68947368 C4.31052632,8.96315789 4.58421053,9.57894737 4.31052632,10.0578947 L2.53157895,13.7526316 C2.39473684,14.1631579 2.05263158,14.3684211 1.64210526,14.3684211 Z" id="Shape"></path>
            </g>
        </g>
    </g>
</svg>