<?xml version="1.0" encoding="UTF-8"?>
<svg width="52px" height="39px" viewBox="0 0 52 39" version="1.1" xmlns="http://www.w3.org/2000/svg" xmlns:xlink="http://www.w3.org/1999/xlink">
    <!-- Generator: Sketch 46.2 (44496) - http://www.bohemiancoding.com/sketch -->
    <title>noun_754959_cc</title>
    <desc>Created with Sketch.</desc>
    <defs></defs>
    <g id="Page-1" stroke="none" stroke-width="1" fill="none" fill-rule="evenodd">
        <g id="noun_754959_cc" fill-rule="nonzero">
            <path d="M44.9973333,12.7573333 C44.096,12.7573333 43.1946667,12.9653333 42.432,13.2426667 C41.0453333,9.63733333 37.5786667,7.072 33.488,7.072 C31.4773333,7.072 29.6053333,7.696 28.0106667,8.80533333 C28.0106667,8.736 28.0106667,8.59733333 28.0106667,8.528 C28.0106667,3.81333333 24.1973333,0 19.4826667,0 C14.768,0 10.9546667,3.81333333 10.9546667,8.528 C10.9546667,9.01333333 11.024,9.568 11.0933333,10.0533333 C10.2613333,9.776 9.42933333,9.63733333 8.528,9.63733333 C3.81333333,9.63733333 0,13.4506667 0,18.1653333 C0,22.88 3.81333333,26.6933333 8.528,26.6933333 C8.59733333,26.6933333 8.736,26.6933333 8.80533333,26.6933333 L44.928,26.6933333 C48.7413333,26.6933333 51.8613333,23.5733333 51.8613333,19.76 C51.8613333,15.9466667 48.8106667,12.7573333 44.9973333,12.7573333 Z M18.928,3.67466667 C18.7893333,3.67466667 15.392,4.29866667 14.976,8.25066667 C14.9066667,8.59733333 14.6293333,8.87466667 14.2826667,8.87466667 L14.2133333,8.87466667 C13.8666667,8.80533333 13.5893333,8.45866667 13.5893333,8.112 C14.144,3.05066667 18.6506667,2.288 18.6506667,2.288 C18.9973333,2.21866667 19.4133333,2.496 19.4133333,2.84266667 C19.552,3.25866667 19.2746667,3.67466667 18.928,3.67466667 Z" id="Shape" fill="#C6C6C6"></path>
            <path d="M15.9733333,35.3866667 L8.69333333,35.3866667 C8.27733333,35.3866667 8,35.1093333 8,34.6933333 C8,34.2773333 8.27733333,34 8.69333333,34 L15.904,34 C16.32,34 16.5973333,34.2773333 16.5973333,34.6933333 C16.5973333,35.1093333 16.32,35.3866667 15.9733333,35.3866667 Z" id="Shape" fill="#00FFFF"></path>
            <path d="M12.6933333,38.5973333 C12.2773333,38.5973333 12,38.32 12,37.904 L12,30.6933333 C12,30.2773333 12.2773333,30 12.6933333,30 C13.1093333,30 13.3866667,30.2773333 13.3866667,30.6933333 L13.3866667,37.904 C13.3866667,38.32 13.04,38.5973333 12.6933333,38.5973333 Z" id="Shape" fill="#00FFFF"></path>
            <path d="M9.69333333,38.5173333 C9.48533333,38.5173333 9.34666667,38.448 9.208,38.3093333 C8.93066667,38.032 8.93066667,37.616 9.208,37.3386667 L14.3386667,32.208 C14.616,31.9306667 15.032,31.9306667 15.3093333,32.208 C15.5866667,32.4853333 15.5866667,32.9013333 15.3093333,33.1786667 L10.1786667,38.3093333 C10.04,38.448 9.832,38.5173333 9.69333333,38.5173333 Z" id="Shape" fill="#00FFFF"></path>
            <path d="M14.824,38.5173333 C14.616,38.5173333 14.4773333,38.448 14.3386667,38.3093333 L9.208,33.1786667 C8.93066667,32.9013333 8.93066667,32.4853333 9.208,32.208 C9.48533333,31.9306667 9.90133333,31.9306667 10.1786667,32.208 L15.3093333,37.3386667 C15.5866667,37.616 15.5866667,38.032 15.3093333,38.3093333 C15.24,38.448 15.032,38.5173333 14.824,38.5173333 Z" id="Shape" fill="#00FFFF"></path>
            <path d="M29.904,35.3866667 L22.6933333,35.3866667 C22.2773333,35.3866667 22,35.1093333 22,34.6933333 C22,34.2773333 22.2773333,34 22.6933333,34 L29.904,34 C30.32,34 30.5973333,34.2773333 30.5973333,34.6933333 C30.5973333,35.1093333 30.32,35.3866667 29.904,35.3866667 Z" id="Shape" fill="#00FFFF"></path>
            <path d="M26.6933333,38.5973333 C26.2773333,38.5973333 26,38.32 26,37.904 L26,30.6933333 C26,30.2773333 26.2773333,30 26.6933333,30 C27.1093333,30 27.3866667,30.2773333 27.3866667,30.6933333 L27.3866667,37.904 C27.3866667,38.32 27.1093333,38.5973333 26.6933333,38.5973333 Z" id="Shape" fill="#00FFFF"></path>
            <path d="M23.6933333,38.5173333 C23.4853333,38.5173333 23.3466667,38.448 23.208,38.3093333 C22.9306667,38.032 22.9306667,37.616 23.208,37.3386667 L28.3386667,32.208 C28.616,31.9306667 29.032,31.9306667 29.3093333,32.208 C29.5866667,32.4853333 29.5866667,32.9013333 29.3093333,33.1786667 L24.1786667,38.3093333 C24.04,38.448 23.9013333,38.5173333 23.6933333,38.5173333 Z" id="Shape" fill="#00FFFF"></path>
            <path d="M28.824,38.5173333 C28.616,38.5173333 28.4773333,38.448 28.3386667,38.3093333 L23.208,33.1786667 C22.9306667,32.9013333 22.9306667,32.4853333 23.208,32.208 C23.4853333,31.9306667 23.9013333,31.9306667 24.1786667,32.208 L29.3093333,37.3386667 C29.5866667,37.616 29.5866667,38.032 29.3093333,38.3093333 C29.1706667,38.448 28.9626667,38.5173333 28.824,38.5173333 Z" id="Shape" fill="#00FFFF"></path>
            <path d="M42.9733333,35.3866667 L35.6933333,35.3866667 C35.2773333,35.3866667 35,35.1093333 35,34.6933333 C35,34.2773333 35.2773333,34 35.6933333,34 L42.904,34 C43.32,34 43.5973333,34.2773333 43.5973333,34.6933333 C43.5973333,35.1093333 43.32,35.3866667 42.9733333,35.3866667 Z" id="Shape" fill="#00FFFF"></path>
            <path d="M40.6933333,38.5973333 C40.2773333,38.5973333 40,38.32 40,37.904 L40,30.6933333 C40,30.2773333 40.2773333,30 40.6933333,30 C41.1093333,30 41.3866667,30.2773333 41.3866667,30.6933333 L41.3866667,37.904 C41.3866667,38.32 41.1093333,38.5973333 40.6933333,38.5973333 Z" id="Shape" fill="#00FFFF"></path>
            <path d="M37.6933333,38.5173333 C37.4853333,38.5173333 37.3466667,38.448 37.208,38.3093333 C36.9306667,38.032 36.9306667,37.616 37.208,37.3386667 L42.3386667,32.208 C42.616,31.9306667 43.032,31.9306667 43.3093333,32.208 C43.5866667,32.4853333 43.5866667,32.9013333 43.3093333,33.1786667 L38.1786667,38.3093333 C38.04,38.448 37.832,38.5173333 37.6933333,38.5173333 Z" id="Shape" fill="#00FFFF"></path>
            <path d="M42.824,38.5173333 C42.616,38.5173333 42.4773333,38.448 42.3386667,38.3093333 L37.208,33.1786667 C36.9306667,32.9013333 36.9306667,32.4853333 37.208,32.208 C37.4853333,31.9306667 37.9013333,31.9306667 38.1786667,32.208 L43.3093333,37.3386667 C43.5866667,37.616 43.5866667,38.032 43.3093333,38.3093333 C43.1706667,38.448 43.032,38.5173333 42.824,38.5173333 Z" id="Shape" fill="#00FFFF"></path>
        </g>
    </g>
</svg>