<?xml version="1.0" encoding="UTF-8"?>
<svg width="52px" height="51px" viewBox="0 0 52 51" version="1.1" xmlns="http://www.w3.org/2000/svg" xmlns:xlink="http://www.w3.org/1999/xlink">
    <!-- Generator: Sketch 46.2 (44496) - http://www.bohemiancoding.com/sketch -->
    <title>noun_754948_cc</title>
    <desc>Created with Sketch.</desc>
    <defs></defs>
    <g id="Page-1" stroke="none" stroke-width="1" fill="none" fill-rule="evenodd">
        <g id="noun_754948_cc" fill-rule="nonzero" fill="#FF9500">
            <path d="M25.7454278,8.59481193 C25.0355317,8.59481193 24.4143727,7.97365291 24.4143727,7.26375689 L24.4143727,2.20574772 C24.4143727,1.49585169 25.0355317,0.874692672 25.7454278,0.874692672 C26.4553238,0.874692672 27.0764828,1.49585169 27.0764828,2.20574772 L27.0764828,7.26375689 C27.0764828,8.06238992 26.5440608,8.59481193 25.7454278,8.59481193 Z" id="Shape"></path>
            <path d="M13.4109843,13.1203991 C13.0560363,13.1203991 12.6123513,12.9429251 12.4348773,12.6767141 L9.15160819,8.77228594 C8.70792318,8.23986392 8.79666018,7.35249389 9.3290822,6.90880888 C9.86150422,6.46512386 10.7488742,6.46512386 11.1925593,7.08628288 L14.4758284,10.990711 C14.9195134,11.523133 14.8307764,12.4105031 14.2983544,12.8541881 C14.0321434,13.0316621 13.7659323,13.1203991 13.4109843,13.1203991 Z" id="Shape"></path>
            <path d="M6.84444611,24.5674725 C6.75570911,24.5674725 6.66697211,24.5674725 6.5782351,24.5674725 L1.60896294,23.6801024 C0.899066913,23.5913654 0.366644895,22.8814694 0.544118901,22.1715734 C0.632855904,21.4616774 1.34275193,20.9292554 2.05264795,21.1067294 L7.02192012,21.9940994 C7.73181614,22.0828364 8.26423816,22.7927324 8.08676416,23.5026284 C8.08676416,24.0350505 7.46560513,24.5674725 6.84444611,24.5674725 Z" id="Shape"></path>
            <path d="M4.80349504,40.007711 C4.35981003,40.007711 3.91612501,39.7415 3.64991401,39.297815 C3.29496599,38.676656 3.47244,37.8780229 4.09359902,37.5230749 L8.44171217,35.0384388 C9.06287119,34.6834908 9.86150422,34.8609648 10.2164522,35.4821238 C10.5714002,36.1032829 10.3939262,36.9019159 9.77276721,37.2568639 L5.42465407,39.7415 C5.24718006,39.918974 4.98096905,40.007711 4.80349504,40.007711 Z" id="Shape"></path>
            <path d="M18.2915195,50.3899403 C17.9365715,50.6561514 17.4041495,50.7448884 16.9604645,50.5674144 C16.2505684,50.3012033 15.8956204,49.5913073 16.1618314,48.8814113 L17.9365715,44.1783501 C18.2027825,43.4684541 18.9126785,43.1135061 19.6225745,43.3797171 C20.3324706,43.6459281 20.6874186,44.3558241 20.4212076,45.0657202 L18.6464675,49.7687813 C18.6464675,50.0349923 18.4689935,50.3012033 18.2915195,50.3899403 Z" id="Shape"></path>
            <path d="M35.4177611,49.6800443 C35.3290241,50.1237293 34.9740761,50.4786773 34.5303911,50.6561514 C33.820495,50.9223624 33.110599,50.5674144 32.844388,49.9462553 L31.1583849,45.2431942 C30.8921739,44.5332981 31.2471219,43.8234021 31.868281,43.5571911 C32.578177,43.2909801 33.288073,43.6459281 33.554284,44.2670871 L35.2402871,48.9701483 C35.3290241,49.2363593 35.4177611,49.5025703 35.4177611,49.6800443 Z" id="Shape"></path>
            <path d="M48.0184155,38.2329709 C48.1958895,38.5879189 48.1958895,39.120341 48.0184155,39.564026 C47.6634675,40.185185 46.8648345,40.451396 46.2436754,40.096448 L41.8955623,37.6118119 C41.2744033,37.2568639 41.0081923,36.4582309 41.3631403,35.8370719 C41.7180883,35.2159128 42.5167213,34.9497018 43.1378803,35.3046498 L47.4859935,37.7892859 C47.6634675,37.8780229 47.9296785,38.0554969 48.0184155,38.2329709 Z" id="Shape"></path>
            <path d="M50.2368406,21.2842034 C50.6805256,21.4616774 50.9467366,21.8166254 51.0354736,22.3490474 C51.1242106,23.0589434 50.6805256,23.7688394 49.9706296,23.8575764 L45.0013574,24.7449465 C44.2914614,24.8336835 43.5815654,24.3899985 43.4928284,23.6801024 C43.4040914,22.9702064 43.8477764,22.2603104 44.5576724,22.1715734 L49.5269446,21.2842034 C49.7931556,21.1954664 50.0593666,21.1954664 50.2368406,21.2842034 Z" id="Shape"></path>
            <path d="M38.1686082,13.1203991 C37.9023972,13.1203991 37.5474492,13.0316621 37.2812381,12.7654511 C36.7488161,12.3217661 36.6600791,11.434396 37.1037641,10.901974 L40.3870332,6.99754588 C40.8307183,6.46512386 41.7180883,6.37638686 42.2505103,6.82007187 C42.7829323,7.26375689 42.8716693,8.15112692 42.4279843,8.68354894 L39.1447152,12.5879771 C38.8785042,12.9429251 38.5235562,13.1203991 38.1686082,13.1203991 Z" id="Shape"></path>
            <circle id="Oval" cx="25.7454278" cy="26.5196865" r="14.1979205"></circle>
        </g>
    </g>
</svg>