<?xml version="1.0" encoding="UTF-8"?>
<svg width="52px" height="21px" viewBox="0 0 52 21" version="1.1" xmlns="http://www.w3.org/2000/svg" xmlns:xlink="http://www.w3.org/1999/xlink">
    <!-- Generator: Sketch 46.2 (44496) - http://www.bohemiancoding.com/sketch -->
    <title>noun_754941_cc</title>
    <desc>Created with Sketch.</desc>
    <defs></defs>
    <g id="Page-1" stroke="none" stroke-width="1" fill="none" fill-rule="evenodd">
        <g id="noun_754941_cc" fill-rule="nonzero" fill="#00FEFF">
            <path d="M9.93432836,11.4865672 L5.5880597,11.4865672 C2.94925373,11.4865672 1.00895522,9.93432836 0.310447761,7.21791045 C0.155223881,6.44179104 0.155223881,5.74328358 0.232835821,5.04477612 C0.543283582,2.87164179 2.09552239,1.31940299 4.4238806,0.698507463 C5.2,0.543283582 5.89850746,0.465671642 6.59701493,0.620895522 C9.85671642,1.1641791 10.9432836,4.34626866 11.0985075,5.89850746 C11.1761194,6.51940299 10.7104478,7.06268657 10.0119403,7.14029851 C9.39104478,7.21791045 8.84776119,6.75223881 8.77014925,6.05373134 C8.77014925,5.89850746 8.45970149,3.25970149 6.20895522,2.87164179 C5.82089552,2.79402985 5.43283582,2.79402985 4.96716418,2.94925373 C3.49253731,3.33731343 2.71641791,4.11343284 2.48358209,5.35522388 C2.40597015,5.74328358 2.48358209,6.13134328 2.56119403,6.51940299 C3.02686567,8.22686567 4.0358209,9.08059701 5.5880597,9.08059701 L9.93432836,9.08059701 C10.5552239,9.08059701 11.0985075,9.6238806 11.0985075,10.2447761 C11.0985075,10.8656716 10.6328358,11.4865672 9.93432836,11.4865672 Z" id="Shape"></path>
            <path d="M31.9761194,20.5671642 L16.5313433,20.5671642 C13.8925373,20.5671642 11.9522388,19.0149254 11.2537313,16.2985075 C11.0985075,15.6 11.0208955,14.8238806 11.0985075,14.2029851 C11.4089552,12.0298507 12.961194,10.4776119 15.2895522,9.85671642 C16.0656716,9.70149254 16.7641791,9.6238806 17.4626866,9.77910448 C20.7223881,10.3223881 21.8089552,13.5044776 21.9641791,15.0567164 C22.041791,15.6776119 21.5761194,16.2208955 20.8776119,16.2985075 C20.2567164,16.3761194 19.7134328,15.9104478 19.6358209,15.2119403 C19.6358209,15.0567164 19.3253731,12.4179104 17.0746269,12.0298507 C16.6865672,11.9522388 16.2985075,11.9522388 15.8328358,12.1074627 C14.358209,12.4955224 13.5044776,13.2716418 13.3492537,14.5134328 C13.2716418,14.9014925 13.3492537,15.2895522 13.4268657,15.6776119 C13.8925373,17.3850746 14.9014925,18.238806 16.4537313,18.238806 L31.9761194,18.238806 C32.5970149,18.238806 33.1402985,18.7820896 33.1402985,19.4029851 C33.1402985,20.0238806 32.6746269,20.5671642 31.9761194,20.5671642 Z" id="Shape"></path>
            <path d="M44.4716418,11.0208955 L24.5253731,11.0208955 C23.9044776,11.0208955 23.361194,10.4776119 23.361194,9.85671642 C23.361194,9.2358209 23.9044776,8.69253731 24.5253731,8.69253731 L44.5492537,8.69253731 C45.1701493,8.69253731 45.7134328,9.2358209 45.7134328,9.85671642 C45.7134328,10.4776119 45.0925373,11.0208955 44.4716418,11.0208955 Z" id="Shape"></path>
            <path d="M50.6029851,16.2208955 L30.6567164,16.2208955 C30.0358209,16.2208955 29.4925373,15.6776119 29.4925373,15.0567164 C29.4925373,14.4358209 30.0358209,13.8925373 30.6567164,13.8925373 L50.6029851,13.8925373 C51.2238806,13.8925373 51.7671642,14.4358209 51.7671642,15.0567164 C51.7671642,15.6776119 51.3014925,16.2208955 50.6029851,16.2208955 Z" id="Shape"></path>
        </g>
    </g>
</svg>